<svg xmlns="http://www.w3.org/2000/svg" xmlns:xlink="http://www.w3.org/1999/xlink" width="1920" zoomAndPan="magnify" viewBox="0 0 1440 809.999993" height="1080" preserveAspectRatio="xMidYMid meet" version="1.0"><defs><clipPath id="7d5f902b4a"><path d="M 314.675781 14.046875 L 1125.425781 14.046875 L 1125.425781 796.296875 L 314.675781 796.296875 Z M 314.675781 14.046875 " clip-rule="nonzero"/></clipPath><clipPath id="ccd74ea097"><path d="M 764 61.175781 L 855 61.175781 L 855 170 L 764 170 Z M 764 61.175781 " clip-rule="nonzero"/></clipPath></defs><g clip-path="url(#7d5f902b4a)"><path fill="#000000" d="M 854.515625 14.046875 L 585.011719 14.046875 C 435.703125 14.046875 314.679688 132.316406 314.679688 333.324219 C 314.679688 485.0625 378.125 576.164062 469.789062 618.433594 L 469.789062 796.296875 L 653.394531 643.597656 L 854.515625 643.597656 C 1004.390625 643.597656 1125.421875 525.328125 1125.421875 333.296875 C 1125.433594 132.316406 1004.390625 14.046875 854.515625 14.046875 " fill-opacity="1" fill-rule="nonzero"/></g><path fill="#fdaf00" d="M 663.929688 132.777344 C 677.132812 122.742188 696.144531 125.339844 706.175781 138.546875 L 785.738281 243.304688 L 785.75 243.292969 L 829.679688 291.726562 L 829.253906 292.117188 C 808.902344 311.027344 792.632812 334.714844 786.515625 359.503906 C 780.332031 384.535156 784.449219 410.636719 805.015625 434.09375 C 805.65625 434.8125 806.320312 435.550781 807.003906 436.289062 C 807.863281 437.226562 809.320312 437.285156 810.257812 436.417969 C 811.191406 435.558594 811.246094 434.101562 810.386719 433.164062 C 809.746094 432.472656 809.109375 431.769531 808.476562 431.046875 C 789.039062 408.886719 785.144531 384.238281 790.980469 360.613281 C 796.875 336.738281 812.640625 313.84375 832.371094 295.503906 L 832.539062 295.347656 C 831.042969 277.582031 833.734375 263.160156 840.011719 251.59375 C 831.195312 194.992188 861.8125 173.277344 888.0625 180.8125 C 894.636719 181.933594 888.175781 211.390625 889.878906 220.605469 L 892.175781 262.945312 L 904.402344 315.515625 C 910.929688 379.894531 953.101562 460.46875 869.894531 501.839844 C 837.066406 565.191406 747.511719 544.042969 700.636719 507.527344 L 647.289062 465.96875 L 621.101562 444.863281 L 539.390625 388.300781 C 525.753906 378.859375 522.25 360.019531 531.648438 346.355469 C 541.054688 332.6875 559.921875 329.203125 573.578125 338.609375 L 654.507812 394.34375 C 650.707031 402.058594 651.054688 410.359375 653.328125 414.851562 C 652.394531 408.417969 655.578125 400.410156 662.144531 394.347656 C 668.710938 388.285156 676.9375 385.746094 683.277344 387.1875 C 677.75 383.03125 668.285156 384.460938 660.789062 390.71875 L 547.148438 291.746094 C 534.640625 280.851562 532.953125 261.875 543.691406 249.230469 C 554.425781 236.582031 573.503906 235.082031 586.183594 245.769531 L 689.476562 332.871094 C 683.4375 339.710938 681.648438 348.394531 685.164062 353.945312 C 684.234375 347.507812 687.414062 339.503906 693.984375 333.4375 C 700.546875 327.378906 708.773438 324.839844 715.117188 326.285156 C 709.558594 321.917969 700.289062 323.480469 692.980469 329.714844 L 578.257812 211.054688 C 566.730469 199.132812 567.050781 179.9375 578.964844 168.40625 C 590.882812 156.871094 610.066406 157.191406 621.597656 169.113281 L 736.464844 287.921875 C 730.402344 294.941406 728.730469 303.824219 732.800781 310.15625 C 731.867188 303.71875 735.050781 295.714844 741.613281 289.65625 C 748.179688 283.589844 756.410156 281.050781 762.75 282.496094 C 757.980469 279.640625 749.144531 279.878906 741.371094 284.597656 L 658.167969 175.050781 C 648.132812 161.835938 650.726562 142.820312 663.929688 132.777344 " fill-opacity="1" fill-rule="evenodd"/><path fill="#fdaf00" d="M 588.148438 482.394531 C 591.082031 482.09375 593.214844 479.472656 592.917969 476.539062 C 592.617188 473.605469 590 471.46875 587.066406 471.769531 C 578.511719 472.625 568.785156 471.246094 558.785156 467.921875 C 548.601562 464.546875 538.242188 459.183594 528.628906 452.15625 C 518.800781 444.96875 510.425781 436.539062 504.097656 427.714844 C 497.894531 419.066406 493.683594 410.0625 492.046875 401.515625 C 491.496094 398.613281 488.695312 396.710938 485.796875 397.257812 C 482.902344 397.8125 480.996094 400.609375 481.550781 403.511719 C 483.480469 413.582031 488.332031 424.03125 495.433594 433.949219 C 502.414062 443.6875 511.59375 452.933594 522.308594 460.773438 C 532.867188 468.5 544.246094 474.378906 555.417969 478.089844 C 566.769531 481.855469 578.027344 483.40625 588.148438 482.394531 " fill-opacity="1" fill-rule="nonzero"/><path fill="#fdaf00" d="M 733.800781 90.269531 C 730.882812 89.847656 728.175781 91.867188 727.753906 94.785156 C 727.324219 97.707031 729.347656 100.414062 732.265625 100.839844 C 740.773438 102.09375 749.867188 105.804688 758.761719 111.457031 C 767.8125 117.214844 776.554688 124.9375 784.167969 134.101562 C 791.953125 143.472656 798.023438 153.679688 802.007812 163.785156 C 805.921875 173.683594 807.808594 183.449219 807.320312 192.132812 C 807.148438 195.082031 809.394531 197.609375 812.339844 197.78125 C 815.292969 197.953125 817.816406 195.699219 817.988281 192.753906 C 818.566406 182.515625 816.40625 171.195312 811.933594 159.855469 C 807.53125 148.710938 800.878906 137.5 792.394531 127.285156 C 784.03125 117.21875 774.4375 108.738281 764.503906 102.421875 C 754.40625 96 743.867188 91.753906 733.800781 90.269531 " fill-opacity="1" fill-rule="nonzero"/><path fill="#fdaf00" d="M 557.804688 521.875 C 560.738281 521.570312 562.875 518.953125 562.574219 516.015625 C 562.277344 513.085938 559.65625 510.945312 556.722656 511.246094 C 548.171875 512.101562 538.441406 510.722656 528.441406 507.40625 C 518.257812 504.023438 507.898438 498.660156 498.285156 491.632812 C 488.460938 484.445312 480.082031 476.019531 473.753906 467.195312 C 467.554688 458.542969 463.339844 449.539062 461.703125 440.992188 C 461.148438 438.089844 458.355469 436.1875 455.460938 436.734375 C 452.554688 437.289062 450.652344 440.089844 451.207031 442.988281 C 453.136719 453.058594 457.984375 463.507812 465.089844 473.425781 C 472.070312 483.164062 481.25 492.410156 491.96875 500.25 C 502.523438 507.976562 513.902344 513.855469 525.074219 517.566406 C 536.425781 521.332031 547.683594 522.882812 557.804688 521.875 " fill-opacity="1" fill-rule="nonzero"/><g clip-path="url(#ccd74ea097)"><path fill="#fdaf00" d="M 770.488281 61.589844 C 767.570312 61.164062 764.863281 63.1875 764.4375 66.105469 C 764.011719 69.023438 766.035156 71.734375 768.953125 72.15625 C 777.453125 73.414062 786.554688 77.125 795.445312 82.777344 C 804.496094 88.539062 813.238281 96.261719 820.851562 105.421875 C 828.632812 114.796875 834.707031 125.003906 838.691406 135.101562 C 842.605469 145.007812 844.496094 154.765625 844.003906 163.453125 C 843.832031 166.398438 846.082031 168.925781 849.027344 169.101562 C 851.972656 169.273438 854.503906 167.023438 854.671875 164.078125 C 855.253906 153.839844 853.089844 142.519531 848.613281 131.171875 C 844.214844 120.027344 837.566406 108.820312 829.078125 98.605469 C 820.71875 88.539062 811.121094 80.0625 801.183594 73.738281 C 791.089844 67.320312 780.550781 63.074219 770.488281 61.589844 " fill-opacity="1" fill-rule="nonzero"/></g></svg>